<svg width="1200" height="1200" viewBox="0 0 1200 1200" xmlns="http://www.w3.org/2000/svg">
  <rect width="1200" height="1200" fill="#edf3ef"/>
  <path d="M0 300h1200M0 402h1200M0 504h1200M0 606h1200M0 708h1200M0 810h1200M120 0v1200M240 0v1200M360 0v1200M480 0v1200M600 0v1200M720 0v1200M840 0v1200M960 0v1200M1080 0v1200" stroke="#d6e0dc" stroke-width="1"/>
  <rect x="72" y="344" width="1056" height="482" fill="#fbfffb" stroke="#17231f" stroke-width="3"/>
  <rect x="98" y="370" width="118" height="118" rx="19" fill="#0e4f4d" stroke="#17231f" stroke-width="3"/>
  <path d="M112 434h35c15 0 20-20 35-20h54" fill="none" stroke="#d7ff61" stroke-width="11" stroke-linecap="round"/>
  <path d="M153 393h42c13 0 23 10 23 23v24c0 13-10 23-23 23h-36c-13 0-23-10-23-23v-31c0-9 7-16 17-16Z" fill="#edf3ef" stroke="#17231f" stroke-width="3"/>
  <circle cx="171" cy="428" r="5" fill="#0e4f4d"/>
  <circle cx="193" cy="428" r="5" fill="#0e4f4d"/>
  <text x="246" y="418" fill="#17231f" font-family="Inter, Arial, sans-serif" font-size="54" font-weight="900">ghost<tspan fill="#1b7a75">line</tspan></text>
  <text x="98" y="574" fill="#17231f" font-family="Inter, Arial, sans-serif" font-size="72" font-weight="900">Numer + domena email</text>
  <text x="98" y="654" fill="#17231f" font-family="Inter, Arial, sans-serif" font-size="72" font-weight="900">do formularzy.</text>
  <text x="100" y="732" fill="#65716a" font-family="Inter, Arial, sans-serif" font-size="30" font-weight="700">Agent AI filtruje telefony, maile i telemarketing.</text>
  <text x="100" y="800" fill="#1b7a75" font-family="Inter, Arial, sans-serif" font-size="28" font-weight="900">ghostline.pl</text>
</svg>
